<?xml version="1.0" encoding="utf-8"?>
<!-- Generator: Adobe Illustrator 18.0.0, SVG Export Plug-In . SVG Version: 6.00 Build 0)  -->
<!DOCTYPE svg PUBLIC "-//W3C//DTD SVG 1.1//EN" "http://www.w3.org/Graphics/SVG/1.1/DTD/svg11.dtd">
<svg version="1.1" id="Layer_1" xmlns="http://www.w3.org/2000/svg" xmlns:xlink="http://www.w3.org/1999/xlink" x="0px" y="0px"
	 viewBox="0 0 83.6 80.8" enable-background="new 0 0 83.6 80.8" xml:space="preserve">
<g id="Frame_2_" opacity="0.2">
	<g>
		<path fill-rule="evenodd" clip-rule="evenodd" fill="#010101" d="M77.8,2.4H8.1C4.9,2.4,2.3,5,2.3,8.2v63.9c0,5,4,8.7,8.7,8.7
			h63.9c5,0,8.4-3.8,8.7-8.7V8.2C83.6,5,81,2.4,77.8,2.4z"/>
	</g>
</g>
<g id="Frame_4_">
	<g>
		<path fill-rule="evenodd" clip-rule="evenodd" fill="#FFFFFF" d="M75.8,0.4H6.1C2.9,0.4,0.3,3,0.3,6.2v63.9c0,5,4,8.7,8.7,8.7
			h63.9c5,0,8.4-3.8,8.7-8.7V6.2C81.6,3,79,0.4,75.8,0.4z"/>
	</g>
</g>
<g id="Page">
	<g>
		<path fill-rule="evenodd" clip-rule="evenodd" fill="#D5D6D7" d="M6.1,17.8v49.4c0,3.2,2.6,5.8,5.8,5.8H70c3.2,0,5.8-2.6,5.8-5.8
			V17.8H6.1z"/>
	</g>
</g>
<g id="info">
	<g>
		<path fill-rule="evenodd" clip-rule="evenodd" fill="#ABADAF" d="M11.9,23.6v14.5H70V23.6H11.9z M11.9,67.2h13.6V43.9H11.9V67.2z
			 M31.3,46.7H70v-2.8H31.3V46.7z M31.3,51.8H70V49H31.3V51.8z M31.3,56.9H70v-2.8H31.3V56.9z M31.3,62H70v-2.8H31.3V62z M31.3,67.2
			h32.5v-2.8H31.3V67.2z"/>
	</g>
</g>
<g id="Search_Bar">
	<g>
		<path fill-rule="evenodd" clip-rule="evenodd" fill="#D5D6D7" d="M74.3,6.2H30.8c-0.8,0-1.5,0.7-1.5,1.5v2.9
			c0,0.8,0.7,1.5,1.5,1.5h43.6c0.8,0,1.5-0.7,1.5-1.5V7.6C75.8,6.8,75.1,6.2,74.3,6.2z"/>
	</g>
</g>
<circle fill-rule="evenodd" clip-rule="evenodd" fill="#ED2224" cx="8.4" cy="8.5" r="2.3"/>
<circle fill-rule="evenodd" clip-rule="evenodd" fill="#F9B82B" cx="15.4" cy="8.5" r="2.3"/>
<circle fill-rule="evenodd" clip-rule="evenodd" fill="#3DB54A" cx="22.4" cy="8.5" r="2.3"/>
</svg>
