<?xml version="1.0" encoding="utf-8"?>
<!-- Generator: Adobe Illustrator 18.0.0, SVG Export Plug-In . SVG Version: 6.00 Build 0)  -->
<!DOCTYPE svg PUBLIC "-//W3C//DTD SVG 1.1//EN" "http://www.w3.org/Graphics/SVG/1.1/DTD/svg11.dtd">
<svg version="1.1" id="Layer_1" xmlns="http://www.w3.org/2000/svg" xmlns:xlink="http://www.w3.org/1999/xlink" x="0px" y="0px"
	 viewBox="0 0 92.4 80.1" enable-background="new 0 0 92.4 80.1" xml:space="preserve">
<g id="Leg_2_" opacity="0.2">
	<g>
		<polygon fill="#010101" points="60.4,71.7 60.4,60.4 32.1,60.4 32.1,71.7 26.4,74.5 26.4,80.1 66,80.1 66,74.5 		"/>
	</g>
</g>
<g id="Leg">
	<g>
		<polygon fill="#C0C1C3" points="59.4,70.7 59.4,59.4 31.1,59.4 31.1,70.7 25.4,73.5 25.4,79.1 65,79.1 65,73.5 		"/>
	</g>
</g>
<g id="Facia_2_" opacity="0.2">
	<g>
		<path fill="#010101" d="M86.8,2H7.7C4.5,2,2,4.5,2,7.7v48.1c0,3.1,2.5,5.7,5.7,5.7h79.1c3.1,0,5.7-2.5,5.7-5.7V7.7
			C92.4,4.5,89.9,2,86.8,2z"/>
	</g>
</g>
<g id="Front_3_">
	<g>
		<polygon fill="#FFFFFF" points="59.4,70.7 31.1,70.7 25.4,73.5 25.4,79.1 65,79.1 65,73.5 		"/>
	</g>
</g>
<g id="Facia">
	<g>
		<path fill="#2E3137" d="M84.8,0H5.7C2.5,0,0,2.5,0,5.7v48.1c0,3.1,2.5,5.7,5.7,5.7h79.1c3.1,0,5.7-2.5,5.7-5.7V5.7
			C90.4,2.5,87.9,0,84.8,0z"/>
	</g>
</g>
<g id="Screen_2_">
	<g>
		<rect x="5.7" y="5.7" fill="#6D6F73" width="79.1" height="48.1"/>
	</g>
</g>
<g id="Shine_3_" opacity="5.098000e-02">
	<g>
		<polygon fill="#FFFFFF" points="5.7,5.7 5.7,53.7 84.8,5.7 		"/>
	</g>
</g>
</svg>
